<svg width="153" height="87" viewBox="0 0 153 87" fill="none" xmlns="http://www.w3.org/2000/svg">
<path d="M137.967 48.0292C137.724 47.7031 137.35 47.4848 136.894 47.5029C136.494 47.518 136.095 47.5317 135.694 47.548C139.1 46.2842 142.424 44.811 145.681 43.1322C142.863 47.1134 139.994 51.0545 137.059 54.9446C137.565 53.1481 138.069 51.3512 138.575 49.5547C138.777 48.8366 138.45 48.306 137.967 48.0292ZM61.1325 29.4152C70.637 31.9077 66.404 42.8141 59.5491 45.3385C55.1377 46.9621 49.8261 46.4764 45.3445 45.5575C44.573 36.6283 51.2642 26.8279 61.1325 29.4152ZM149.611 37.7254C141.655 42.4924 133.269 45.9023 124.325 48.0226C122.78 48.3905 123.104 50.8942 124.681 50.8361C127.484 50.7273 130.284 50.6208 133.085 50.5143C121.833 60.1885 107.585 64.6528 93.0637 65.6051C78.1117 66.5877 54.9808 66.3691 46.9159 51.0689C46.4915 50.2649 46.1614 49.4209 45.9061 48.5538C52.3182 49.7483 59.8045 49.8042 65.0147 45.4405C69.275 41.8722 71.421 35.2054 67.8584 30.4493C58.6669 18.1723 41.4168 32.4117 42.2184 44.7976C27.6277 40.6561 16.1126 28.9579 10.8762 14.4476C10.5135 13.4435 8.9762 13.8371 9.27049 14.9104C13.7146 31.0905 26.7739 43.7621 42.662 47.8221C46.3152 64.8124 67.9553 68.0261 82.2621 68.597C100.894 69.3448 120.192 65.2572 134.787 52.7676C134 55.5664 133.213 58.3655 132.426 61.1642C132.065 62.4453 133.84 63.6906 134.739 62.5341C140.54 55.0771 146.126 47.4611 151.495 39.6745C152.332 38.4599 150.759 37.037 149.611 37.7254Z" fill="#8DD9E5"/>
<path d="M137.967 48.0292C137.724 47.7031 137.35 47.4848 136.894 47.5029C136.494 47.518 136.095 47.5317 135.694 47.548C139.1 46.2842 142.424 44.811 145.681 43.1322C142.863 47.1134 139.994 51.0545 137.059 54.9446C137.565 53.1481 138.069 51.3512 138.575 49.5547C138.777 48.8366 138.45 48.306 137.967 48.0292ZM61.1325 29.4152C70.637 31.9077 66.404 42.8141 59.5491 45.3385C55.1377 46.9621 49.8261 46.4764 45.3445 45.5575C44.573 36.6283 51.2642 26.8279 61.1325 29.4152ZM149.611 37.7254C141.655 42.4924 133.269 45.9023 124.325 48.0226C122.78 48.3905 123.104 50.8942 124.681 50.8361C127.484 50.7273 130.284 50.6208 133.085 50.5143C121.833 60.1885 107.585 64.6528 93.0637 65.6051C78.1117 66.5877 54.9808 66.3691 46.9159 51.0689C46.4915 50.2649 46.1614 49.4209 45.9061 48.5538C52.3182 49.7483 59.8045 49.8042 65.0147 45.4405C69.275 41.8722 71.421 35.2054 67.8584 30.4493C58.6669 18.1723 41.4168 32.4117 42.2184 44.7976C27.6277 40.6561 16.1126 28.9579 10.8762 14.4476C10.5135 13.4435 8.9762 13.8371 9.27049 14.9104C13.7146 31.0905 26.7739 43.7621 42.662 47.8221C46.3152 64.8124 67.9553 68.0261 82.2621 68.597C100.894 69.3448 120.192 65.2572 134.787 52.7676C134 55.5664 133.213 58.3655 132.426 61.1642C132.065 62.4453 133.84 63.6906 134.739 62.5341C140.54 55.0771 146.126 47.4611 151.495 39.6745C152.332 38.4599 150.759 37.037 149.611 37.7254Z" fill="#5879E8"/>
</svg>
