<svg width="136" height="145" viewBox="0 0 136 145" fill="none" xmlns="http://www.w3.org/2000/svg">
<path d="M88.5347 54.6726C78.6399 46.8356 65.2743 40.8913 52.6338 42.9754C50.9646 52.7169 52.7302 63.6994 55.16 72.4451C59.2398 87.1398 73.7198 104.286 91.0631 97.0486C110.6 88.8956 100.531 64.1744 88.5347 54.6726ZM65.9031 96.7356C51.9408 86.7913 45.0597 63.1681 48.2432 44.043C47.1068 44.4136 45.9768 44.8321 44.8628 45.3552C16.418 58.7082 18.5109 94.6473 22.0398 120.475C22.083 120.79 22.0475 121.075 21.9771 121.342L22.4321 121.782C23.0834 116.698 24.3821 111.92 26.4753 107.018C27.517 104.576 31.491 105.875 30.4434 108.33C27.92 114.237 26.5512 119.99 26.1951 126.422C26.0885 128.347 23.8039 128.832 22.5436 127.652C15.8346 121.37 9.61559 114.726 3.79782 107.624C2.09268 105.544 5.03672 103.005 6.92942 104.895C10.3401 108.3 13.7521 111.708 17.1626 115.115C14.1829 89.5965 14.4743 60.0919 38.2444 44.3798C41.6032 42.1586 45.2926 40.6409 49.1611 39.7335C50.6383 34.0249 53.1069 28.8821 56.6751 24.8658C78.4436 0.358477 114.086 14.2721 131.873 35.7361C133.207 37.3438 130.864 39.3941 129.427 37.868C111.507 18.7953 75.0336 3.02229 56.8854 31.4077C55.3994 33.7304 54.32 36.287 53.5434 38.9831C74.1924 36.6198 98.1795 50.1911 104.648 69.4813C112.988 94.3452 86.6821 111.538 65.9031 96.7356Z" fill="#8DD9E5"/>
<path d="M88.5347 54.6726C78.6399 46.8356 65.2743 40.8913 52.6338 42.9754C50.9646 52.7169 52.7302 63.6994 55.16 72.4451C59.2398 87.1398 73.7198 104.286 91.0631 97.0486C110.6 88.8956 100.531 64.1744 88.5347 54.6726ZM65.9031 96.7356C51.9408 86.7913 45.0597 63.1681 48.2432 44.043C47.1068 44.4136 45.9768 44.8321 44.8628 45.3552C16.418 58.7082 18.5109 94.6473 22.0398 120.475C22.083 120.79 22.0475 121.075 21.9771 121.342L22.4321 121.782C23.0834 116.698 24.3821 111.92 26.4753 107.018C27.517 104.576 31.491 105.875 30.4434 108.33C27.92 114.237 26.5512 119.99 26.1951 126.422C26.0885 128.347 23.8039 128.832 22.5436 127.652C15.8346 121.37 9.61559 114.726 3.79782 107.624C2.09268 105.544 5.03672 103.005 6.92942 104.895C10.3401 108.3 13.7521 111.708 17.1626 115.115C14.1829 89.5965 14.4743 60.0919 38.2444 44.3798C41.6032 42.1586 45.2926 40.6409 49.1611 39.7335C50.6383 34.0249 53.1069 28.8821 56.6751 24.8658C78.4436 0.358477 114.086 14.2721 131.873 35.7361C133.207 37.3438 130.864 39.3941 129.427 37.868C111.507 18.7953 75.0336 3.02229 56.8854 31.4077C55.3994 33.7304 54.32 36.287 53.5434 38.9831C74.1924 36.6198 98.1795 50.1911 104.648 69.4813C112.988 94.3452 86.6821 111.538 65.9031 96.7356Z" fill="#5879E8"/>
</svg>
