<svg width="39" height="40" viewBox="0 0 39 40" fill="none" xmlns="http://www.w3.org/2000/svg">
<path d="M0.749669 24.248C4.55851 25.3024 8.34201 26.4554 12.1255 27.5963L12.1532 27.7055C13.5537 31.6152 15.1731 35.4603 16.6934 39.3259C16.9758 40.0442 17.9804 40.2931 18.4201 39.5497C19.6933 37.3984 21.0056 35.2706 22.2681 33.1133C23.1913 31.5355 24.4116 29.9084 24.7469 28.097C24.8229 28.1357 24.9066 28.1683 25.0048 28.1872C28.9572 28.9443 32.9302 29.2318 36.9516 28.9746C37.6838 28.9276 38.1112 28.2191 37.769 27.5652C35.8956 23.9818 33.713 20.6244 30.8497 17.7335C30.4544 17.3345 29.7369 17.8557 30.0554 18.3396C31.9487 21.2237 33.8082 24.1183 35.4213 27.1617C32.0906 27.2443 28.8067 26.9955 25.5144 26.3614C24.9073 26.2445 24.476 26.6496 24.3517 27.1101C24.2266 27.0873 24.0969 27.101 23.9902 27.1768C22.3456 28.3389 21.4845 30.3848 20.4945 32.0885C19.5705 33.6784 18.6718 35.2813 17.7662 36.8811C16.5284 33.6473 15.315 30.3977 13.9613 27.2132C13.8538 26.9606 13.6719 26.793 13.4632 26.6966C13.4555 26.3303 13.256 25.9715 12.8009 25.8342C9.55765 24.8572 6.31211 23.8771 3.08423 22.85C6.29984 20.1071 9.64668 17.5955 13.0626 15.0778C13.4026 14.8268 13.4517 14.4611 13.3327 14.1698C13.3749 14.072 13.4056 13.965 13.411 13.8383C13.5476 10.0751 13.4755 6.29903 13.4739 2.53051C16.6688 4.73943 19.8529 6.93394 22.9956 9.22251C22.8675 9.88701 23.6242 10.6888 24.4568 10.2974C28.2411 8.5201 32.1229 7.14634 36.1681 6.17235C34.1796 9.78157 31.7998 13.1382 29.8819 16.7831C29.5926 17.333 30.2818 17.8739 30.7507 17.4453C34.327 14.1736 36.7767 9.52594 38.8841 5.24691C39.2709 4.4618 38.6369 3.62967 37.7651 3.80717C33.01 4.77737 28.4353 6.28994 24.0639 8.36459C20.8667 5.15058 17.0579 2.21647 13.0372 0.107681C12.4532 -0.198776 11.7119 0.17898 11.7103 0.860165C11.7027 5.18243 11.5392 9.5176 11.6566 13.8383C11.6597 13.9468 11.6896 14.0356 11.7211 14.1228C7.5316 16.29 3.65216 19.2886 0.295347 22.5496C-0.259515 23.089 0.0098534 24.0432 0.749669 24.248Z" fill="#FEB9CC"/>
</svg>
